<svg xmlns="http://www.w3.org/2000/svg"  viewBox="0 0 48 48" width="240px" height="240px" baseProfile="basic"><linearGradient id="-nbHaJkMVMPbqDwrv2BrCa" x1="19.407" x2="19.407" y1="43.614" y2="1.08" gradientUnits="userSpaceOnUse"><stop offset="0" stop-color="#0098f5"/><stop offset=".414" stop-color="#0299f5"/><stop offset=".563" stop-color="#099ef6"/><stop offset=".669" stop-color="#14a5f6"/><stop offset=".755" stop-color="#25b0f7"/><stop offset=".829" stop-color="#3bbef9"/><stop offset=".894" stop-color="#57cffb"/><stop offset=".952" stop-color="#76e3fd"/><stop offset="1" stop-color="#97f8ff"/></linearGradient><path fill="url(#-nbHaJkMVMPbqDwrv2BrCa)" d="M21,27c-3.491-7.072-7.186-10.29-13.504-10.297C5.312,19.562,4,23.124,4,27	c0,9.389,7.611,17,17,17c5.699,0,10.73-2.814,13.815-7.118C27.875,36.878,24.31,33.706,21,27z"/><path fill="#118bef" d="M36.61,33.68c-0.11,0.27-0.24,0.54-0.37,0.8c-0.13,0.27-0.27,0.54-0.42,0.8	c-0.15,0.27-0.31,0.54-0.49,0.8c-2.73,4.3-7.32,7.29-12.55,7.83c-10.79,1.1-19.79-7.9-18.69-18.69c0.36-3.52,1.83-6.74,4.06-9.31	c0.23-0.26,0.46-0.52,0.71-0.76c0.24-0.26,0.5-0.5,0.76-0.74c0.27-0.24,0.54-0.47,0.83-0.7c5.76,0.88,9.78,4.5,13.42,11.87	c3.06,6.21,5.62,8.1,10.95,8.1H36.61z" opacity=".1"/><path fill="#118bef" d="M36.24,34.48c-0.13,0.27-0.27,0.54-0.42,0.8c-0.15,0.27-0.31,0.54-0.49,0.8	c-2.73,4.3-7.32,7.29-12.55,7.83c-10.79,1.1-19.79-7.9-18.69-18.69c0.36-3.52,1.83-6.74,4.06-9.31c0.23-0.26,0.46-0.52,0.71-0.76	c0.24-0.26,0.5-0.5,0.76-0.74c5.86,0.65,9.88,4.13,13.53,11.53c3.19,6.46,6.03,8.54,11.67,8.54H36.24z" opacity=".2"/><path fill="#118bef" d="M35.82,35.28c-0.15,0.27-0.31,0.54-0.49,0.8c-2.73,4.3-7.32,7.29-12.55,7.83	c-10.79,1.1-19.79-7.9-18.69-18.69c0.36-3.52,1.83-6.74,4.06-9.31c0.23-0.26,0.46-0.52,0.71-0.76c5.93,0.43,9.93,3.75,13.58,11.14	c3.31,6.72,6.44,8.99,12.38,8.99H35.82z" opacity=".3"/><path fill="#118bef" d="M35.33,36.08c-2.73,4.3-7.32,7.29-12.55,7.83c-10.79,1.1-19.79-7.9-18.69-18.69	c0.36-3.52,1.83-6.74,4.06-9.31c5.96,0.22,9.93,3.37,13.57,10.74c3.44,6.96,6.86,9.43,13.09,9.43H35.33z" opacity=".4"/><path fill="#118bef" d="M42.18,14.97c0,0.4-0.12,0.81-0.36,1.16l-3.45,2.16c-0.67,0.42-1.44,0.64-2.23,0.64	c-1.12,0-2.17-0.44-2.97-1.23l-2.87-2.88c-1.39-1.38-1.64-3.52-0.59-5.19l2.16-3.45c0.35-0.24,0.76-0.36,1.16-0.36	c0.28,0,0.56,0.07,0.82,0.2c0.2,0.09,0.39,0.22,0.56,0.39l7.09,7.09l0.09,0.09c0.17,0.17,0.3,0.36,0.39,0.56	C42.11,14.41,42.18,14.69,42.18,14.97z" opacity=".1"/><path fill="#118bef" d="M42.18,14.97l-4.23,2.64c-0.55,0.34-1.17,0.52-1.81,0.52c-0.9,0-1.76-0.35-2.4-1	l-2.87-2.87c-1.13-1.12-1.33-2.85-0.48-4.21l2.64-4.23c0.28,0,0.56,0.07,0.82,0.2c0.2,0.09,0.39,0.22,0.56,0.39l7.09,7.09l0.09,0.09	c0.17,0.17,0.3,0.36,0.39,0.56C42.11,14.41,42.18,14.69,42.18,14.97z" opacity=".2"/><path fill="#118bef" d="M41.98,14.15l-4.46,2.79c-0.41,0.25-0.89,0.39-1.38,0.39c-0.69,0-1.34-0.27-1.83-0.76	l-2.88-2.88c-0.86-0.86-1.01-2.18-0.37-3.21l2.79-4.46c0.2,0.09,0.39,0.22,0.56,0.39l7.09,7.09l0.09,0.09	C41.76,13.76,41.89,13.95,41.98,14.15z" opacity=".3"/><path fill="#118bef" d="M41.5,13.5l-4.4,2.76c-0.29,0.18-0.62,0.27-0.96,0.27c-0.48,0-0.93-0.19-1.27-0.53	L32,13.13c-0.6-0.6-0.7-1.51-0.26-2.23l2.76-4.4L41.5,13.5z" opacity=".4"/><linearGradient id="-nbHaJkMVMPbqDwrv2BrCb" x1="37.837" x2="37.837" y1="17.394" y2=".045" gradientUnits="userSpaceOnUse"><stop offset="0" stop-color="#009cfc"/><stop offset=".297" stop-color="#36bdfd"/><stop offset=".621" stop-color="#6addfe"/><stop offset=".866" stop-color="#8bf1ff"/><stop offset="1" stop-color="#97f8ff"/></linearGradient><path fill="url(#-nbHaJkMVMPbqDwrv2BrCb)" d="M36.334,5.066l-3.912,6.259c-0.247,0.395-0.188,0.908,0.141,1.237l2.875,2.875	c0.329,0.329,0.842,0.388,1.237,0.141l6.259-3.912c0.545-0.341,0.632-1.1,0.177-1.555l-5.222-5.222	C37.434,4.434,36.675,4.521,36.334,5.066z"/><path fill="#118bef" d="M42.67,11.84l-0.35,0.21l-0.35,0.22l-0.35,0.22l-0.35,0.21l-4.6,2.88	c-0.39,0.25-0.9,0.19-1.23-0.14l-2.88-2.88c-0.33-0.33-0.39-0.84-0.14-1.23l2.88-4.6l0.21-0.35l0.22-0.35l0.22-0.34l0.21-0.36	L42.67,11.84z" opacity=".05"/><path fill="#118bef" d="M42.32,12.05l-0.35,0.22l-0.35,0.22l-0.35,0.21l-4.6,2.88c-0.39,0.25-0.9,0.19-1.23-0.14	l-2.88-2.88c-0.33-0.33-0.39-0.84-0.14-1.23l2.88-4.6l0.21-0.35l0.22-0.35l0.22-0.34L42.32,12.05z" opacity=".1"/><path fill="#118bef" d="M41.97,12.27l-0.35,0.22l-0.35,0.21l-4.6,2.88c-0.39,0.25-0.9,0.19-1.23-0.14l-2.88-2.88	c-0.33-0.33-0.39-0.84-0.14-1.23l2.88-4.6l0.21-0.35l0.22-0.35L41.97,12.27z" opacity=".2"/><path fill="#118bef" d="M41.62,12.49l-0.35,0.21l-4.6,2.88c-0.39,0.25-0.9,0.19-1.23-0.14l-2.88-2.88	c-0.33-0.33-0.39-0.84-0.14-1.23l2.88-4.6l0.21-0.35L41.62,12.49z" opacity=".3"/><path fill="#118bef" d="M41.27,12.7l-4.6,2.88c-0.39,0.25-0.9,0.19-1.23-0.14l-2.88-2.88	c-0.33-0.33-0.39-0.84-0.14-1.23l2.88-4.6L41.27,12.7z" opacity=".4"/><linearGradient id="-nbHaJkMVMPbqDwrv2BrCc" x1="23.086" x2="23.086" y1="10.438" y2="40.496" gradientUnits="userSpaceOnUse"><stop offset="0" stop-color="#daa6ff" stop-opacity=".6"/><stop offset="1" stop-color="#dca6ff" stop-opacity=".4"/></linearGradient><path fill="url(#-nbHaJkMVMPbqDwrv2BrCc)" d="M41.586,13.586l-7.172-7.172c-0.781-0.781-2.047-0.781-2.828,0l-4.666,4.666	c-2.743-1.021-5.802-1.394-9.024-0.79c-7.331,1.375-13.049,7.506-13.804,14.926c-1.098,10.789,7.903,19.79,18.692,18.692	c7.421-0.755,13.551-6.473,14.926-13.804c0.604-3.222,0.231-6.281-0.79-9.024l4.666-4.666	C42.367,15.633,42.367,14.367,41.586,13.586z"/><linearGradient id="-nbHaJkMVMPbqDwrv2BrCd" x1="6.395" x2="32.551" y1="10.099" y2="31.742" gradientUnits="userSpaceOnUse"><stop offset="0" stop-color="#f5ebff" stop-opacity=".2"/><stop offset="1" stop-color="#daa6ff" stop-opacity=".4"/></linearGradient><path fill="url(#-nbHaJkMVMPbqDwrv2BrCd)" d="M33,6.328c0.401,0,0.777,0.156,1.061,0.439l7.172,7.172c0.283,0.283,0.439,0.66,0.439,1.061	s-0.156,0.777-0.439,1.061l-4.666,4.666c-0.138,0.138-0.183,0.345-0.115,0.528c1.063,2.857,1.321,5.803,0.767,8.758	c-1.343,7.158-7.299,12.668-14.486,13.399C22.156,43.47,21.573,43.5,21,43.5c-4.658,0-9.122-1.984-12.247-5.443	c-3.168-3.507-4.647-8.049-4.165-12.789c0.731-7.186,6.241-13.143,13.399-14.486C18.986,10.595,20,10.5,21,10.5	c1.941,0,3.874,0.353,5.745,1.049c0.057,0.021,0.116,0.031,0.174,0.031c0.13,0,0.258-0.051,0.354-0.146l4.666-4.666	C32.223,6.484,32.599,6.328,33,6.328 M33,5.828c-0.512,0-1.024,0.195-1.414,0.586l-4.666,4.666C25.074,10.394,23.085,10,21,10	c-1.014,0-2.05,0.093-3.105,0.291c-7.331,1.375-13.049,7.506-13.804,14.926C3.054,35.406,11.024,44,21,44	c0.588,0,1.182-0.03,1.783-0.091c7.421-0.755,13.551-6.473,14.926-13.804c0.604-3.222,0.231-6.281-0.79-9.024l4.666-4.666	c0.781-0.781,0.781-2.047,0-2.828l-7.172-7.172C34.024,6.024,33.512,5.828,33,5.828L33,5.828z"/></svg>