<svg xmlns="http://www.w3.org/2000/svg"  viewBox="0 0 48 48" width="240px" height="240px" baseProfile="basic"><path fill="#118bef" d="M33.46,17.48c-4.28,4.3-7.66,8.02-10.33,11.37c-2.77,3.47-5.14,6.93-7.03,9.84	c-0.34,0.06-0.68,0.09-1.02,0.11c-0.33,0.03-0.66,0.05-0.99,0.06c-0.32,0.03-0.65,0.04-0.98,0.04c-0.81,0.04-1.64,0.04-2.5,0.01	c-0.41-0.02-0.79-0.3-0.93-0.69c-0.38-1.1-0.69-2.17-0.92-3.21c-0.1-0.4-0.19-0.8-0.26-1.19c-0.08-0.42-0.15-0.84-0.21-1.25	c-0.07-0.44-0.12-0.86-0.15-1.28c4.58-7.46,12.72-17.06,19.06-22.26c1.52-1.24,5.25-4.06,8.09-4.31c0.13-0.01,0.26-0.02,0.39-0.02	c1.26,0,2.34,0.52,3.04,1.45C40.51,8.54,38.89,12.03,33.46,17.48z" opacity=".1"/><path fill="#118bef" d="M32.89,16.92c-4.29,4.32-7.69,8.06-10.38,11.43c-2.97,3.72-5.47,7.42-7.43,10.45	c-0.33,0.03-0.66,0.05-0.99,0.06c-0.32,0.03-0.65,0.04-0.98,0.04c-0.81,0.04-1.64,0.04-2.5,0.01c-0.41-0.02-0.79-0.3-0.93-0.69	c-0.38-1.1-0.69-2.17-0.92-3.21c-0.1-0.4-0.19-0.8-0.26-1.19c-0.08-0.42-0.15-0.84-0.21-1.25c4.43-7.49,12.89-17.56,19.42-22.92	c1.19-0.97,5.27-4.15,7.97-4.15c1,0,1.85,0.4,2.4,1.13C39.56,8.61,37.91,11.88,32.89,16.92z" opacity=".2"/><path fill="#118bef" d="M32.33,16.35c-4.32,4.34-7.74,8.1-10.45,11.5c-3.15,3.95-5.78,7.87-7.79,11.01	c-0.32,0.03-0.65,0.04-0.98,0.04c-0.81,0.04-1.64,0.04-2.5,0.01c-0.41-0.02-0.79-0.3-0.93-0.69c-0.38-1.1-0.69-2.17-0.92-3.21	c-0.1-0.4-0.19-0.8-0.26-1.19c4.21-7.49,13-18.04,19.72-23.55c2.34-1.92,5.53-3.97,7.46-3.97c0.74,0,1.37,0.29,1.76,0.81	C38.61,8.67,36.89,11.77,32.33,16.35z" opacity=".3"/><path fill="#118bef" d="M31.76,15.79c-4.34,4.36-7.77,8.14-10.5,11.56c-3.34,4.18-6.09,8.32-8.15,11.55	c-0.81,0.04-1.64,0.04-2.5,0.01c-0.41-0.02-0.79-0.3-0.93-0.69c-0.38-1.1-0.69-2.17-0.92-3.21c3.96-7.43,13.07-18.46,19.96-24.12	c2.81-2.3,5.54-3.79,6.96-3.79c0.62,0,0.95,0.27,1.12,0.49C38.04,9.25,33.26,14.28,31.76,15.79z" opacity=".4"/><linearGradient id="mRCLYrYbWIAH9y2lrZsiAa" x1="-4.662" x2="41.965" y1="65.869" y2="-8.457" gradientUnits="userSpaceOnUse"><stop offset="0" stop-color="#009cfc"/><stop offset=".12" stop-color="#18abfc"/><stop offset=".416" stop-color="#4eccfe"/><stop offset=".672" stop-color="#76e4fe"/><stop offset=".875" stop-color="#8ef3ff"/><stop offset="1" stop-color="#97f8ff"/></linearGradient><path fill="url(#mRCLYrYbWIAH9y2lrZsiAa)" d="M9.052,36.181c-1.562,3.128-2.724,6.349-2.81,8.445C6.225,45.049,6.54,45.09,6.848,44.88	c0.744-0.507,2.837-2.083,5.295-5.947c1.676-2.635,4.727-7.363,8.488-12.08c3.398-4.261,7.432-8.484,10.563-11.63	c3.102-3.115,5.478-6.468,4.969-7.147c-0.509-0.679-3.52,0.635-6.933,3.432C22.424,17.088,12.88,28.515,9.052,36.181z"/><path fill="#118bef" d="M31.19,15.22c-3.13,3.15-7.16,7.37-10.56,11.63c-3.76,4.72-6.81,9.45-8.49,12.08	c-0.09,0.14-0.18,0.27-0.26,0.4c-0.09,0.14-0.17,0.27-0.26,0.39c-0.09,0.14-0.18,0.27-0.28,0.4c-0.09,0.14-0.18,0.27-0.28,0.39	c-0.09,0.14-0.19,0.27-0.29,0.39c-0.07,0.01-0.15,0-0.23,0c-1.23-0.04-2.31-0.84-2.73-1.99c0.07-0.19,0.15-0.37,0.23-0.57	c0.08-0.18,0.16-0.36,0.24-0.55c0.09-0.18,0.17-0.36,0.25-0.55c0.09-0.17,0.17-0.35,0.26-0.53c0.08-0.18,0.17-0.35,0.26-0.53	c3.83-7.67,13.37-19.09,20.18-24.67c3.41-2.8,6.42-4.11,6.93-3.43C36.67,8.75,34.3,12.11,31.19,15.22z" opacity=".05"/><path fill="#118bef" d="M31.19,15.22c-3.13,3.15-7.16,7.37-10.56,11.63c-3.76,4.72-6.81,9.45-8.49,12.08	c-0.09,0.14-0.18,0.27-0.26,0.4c-0.09,0.14-0.17,0.27-0.26,0.39c-0.09,0.14-0.18,0.27-0.28,0.4c-0.09,0.14-0.18,0.27-0.28,0.39	c-0.17,0-0.34,0-0.51-0.01c-1.07-0.03-2.03-0.74-2.38-1.76c-0.05-0.13-0.09-0.27-0.13-0.4c0.08-0.18,0.16-0.36,0.24-0.55	c0.09-0.18,0.17-0.36,0.25-0.55c0.09-0.17,0.17-0.35,0.26-0.53c0.08-0.18,0.17-0.35,0.26-0.53c3.83-7.67,13.37-19.09,20.18-24.67	c3.41-2.8,6.42-4.11,6.93-3.43C36.67,8.75,34.3,12.11,31.19,15.22z" opacity=".1"/><path fill="#118bef" d="M31.19,15.22c-3.13,3.15-7.16,7.37-10.56,11.63c-3.76,4.72-6.81,9.45-8.49,12.08	c-0.09,0.14-0.18,0.27-0.26,0.4c-0.09,0.14-0.17,0.27-0.26,0.39c-0.09,0.14-0.18,0.27-0.28,0.4c-0.25,0-0.51,0-0.77-0.01	c-0.91-0.04-1.72-0.64-2.02-1.5c-0.1-0.28-0.19-0.55-0.27-0.82c0.09-0.18,0.17-0.36,0.25-0.55c0.09-0.17,0.17-0.35,0.26-0.53	c0.08-0.18,0.17-0.35,0.26-0.53c3.83-7.67,13.37-19.09,20.18-24.67c3.41-2.8,6.42-4.11,6.93-3.43C36.67,8.75,34.3,12.11,31.19,15.22	z" opacity=".2"/><path fill="#118bef" d="M31.19,15.22c-3.13,3.15-7.16,7.37-10.56,11.63c-3.76,4.72-6.81,9.45-8.49,12.08	c-0.09,0.14-0.18,0.27-0.26,0.4c-0.09,0.14-0.17,0.27-0.26,0.39c-0.34,0-0.69,0-1.04-0.01c-0.74-0.03-1.41-0.52-1.65-1.23	c-0.14-0.42-0.28-0.83-0.4-1.24c0.09-0.17,0.17-0.35,0.26-0.53c0.08-0.18,0.17-0.35,0.26-0.53c3.83-7.67,13.37-19.09,20.18-24.67	c3.41-2.8,6.42-4.11,6.93-3.43C36.67,8.75,34.3,12.11,31.19,15.22z" opacity=".3"/><path fill="#118bef" d="M31.19,15.22c-3.13,3.15-7.16,7.37-10.56,11.63c-3.76,4.72-6.81,9.45-8.49,12.08	c-0.09,0.14-0.18,0.27-0.26,0.4c-0.42,0-0.85-0.01-1.28-0.02c-0.58-0.02-1.1-0.41-1.29-0.96c-0.19-0.56-0.37-1.1-0.52-1.64	c0.08-0.18,0.17-0.35,0.26-0.53c3.83-7.67,13.37-19.09,20.18-24.67c3.41-2.8,6.42-4.11,6.93-3.43C36.67,8.75,34.3,12.11,31.19,15.22	z" opacity=".4"/><linearGradient id="mRCLYrYbWIAH9y2lrZsiAb" x1="24.995" x2="24.995" y1="52.602" y2="-40.822" gradientUnits="userSpaceOnUse"><stop offset="0" stop-color="#daa6ff" stop-opacity=".6"/><stop offset="1" stop-color="#dca6ff" stop-opacity=".4"/></linearGradient><path fill="url(#mRCLYrYbWIAH9y2lrZsiAb)" d="M9.683,38.22C5.891,27.224,9.45,19.422,10.867,16.951c0.201-0.35,0.709-0.315,0.881,0.05	c1.069,2.275,2.687,3.061,2.687,3.061s-0.593-2.296-0.042-6.587c0.026-0.202,0.113-0.404,0.245-0.56	C23.85,2.021,37.582,2.794,41.03,3.186c0.472,0.054,0.84,0.442,0.874,0.916c0.65,8.993-2.187,14.42-2.935,15.678	c-0.11,0.185-0.271,0.329-0.469,0.414c-0.694,0.3-2.627,1.071-5.798,1.841c2.002,0.649,3.565,0.871,4.401,0.947	c0.339,0.031,0.55,0.375,0.416,0.688c-1.314,3.062-7.967,15.902-26.907,15.237C10.197,38.893,9.819,38.614,9.683,38.22z"/><linearGradient id="mRCLYrYbWIAH9y2lrZsiAc" x1="42.958" x2="22.915" y1="32.291" y2="19.225" gradientUnits="userSpaceOnUse"><stop offset="0" stop-color="#daa6ff" stop-opacity=".6"/><stop offset=".003" stop-color="#daa6ff" stop-opacity="0"/><stop offset="1" stop-color="#fff" stop-opacity=".2"/></linearGradient><path fill="url(#mRCLYrYbWIAH9y2lrZsiAc)" d="M41.904,4.102c-0.013-0.182-0.087-0.343-0.185-0.486	c-14.16,9.231-27.467,26.378-31.635,35.111c0.156,0.105,0.338,0.173,0.53,0.18c18.94,0.665,25.593-12.175,26.907-15.237	c0.134-0.313-0.077-0.657-0.416-0.688c-0.836-0.076-2.399-0.298-4.401-0.947c3.171-0.77,5.104-1.541,5.798-1.841	c0.197-0.085,0.359-0.229,0.469-0.414C39.717,18.522,42.554,13.095,41.904,4.102z"/><linearGradient id="mRCLYrYbWIAH9y2lrZsiAd" x1="15.13" x2="33.172" y1="10.397" y2="28.439" gradientUnits="userSpaceOnUse"><stop offset="0" stop-color="#f5ebff" stop-opacity=".2"/><stop offset="1" stop-color="#daa6ff" stop-opacity=".4"/></linearGradient><path fill="url(#mRCLYrYbWIAH9y2lrZsiAd)" d="M37.534,3.5c1.514,0,2.706,0.099,3.44,0.182c0.233,0.026,0.415,0.218,0.432,0.455	c0.632,8.741-2.034,13.987-2.866,15.386c-0.057,0.095-0.139,0.168-0.237,0.211c-0.673,0.291-2.578,1.052-5.717,1.814	c-0.217,0.053-0.373,0.244-0.382,0.467c-0.008,0.224,0.133,0.425,0.346,0.494c2.087,0.676,3.721,0.897,4.512,0.962	c-1.072,2.498-7.317,14.959-25.041,14.959c-0.456,0-0.918-0.008-1.389-0.025c-0.211-0.007-0.407-0.152-0.475-0.351	c-3.666-10.631-0.421-18.127,1.139-20.843c1.131,2.407,2.849,3.263,2.921,3.298c0.069,0.034,0.144,0.05,0.218,0.05	c0.113,0,0.225-0.038,0.316-0.113c0.151-0.123,0.217-0.323,0.169-0.511c-0.006-0.022-0.56-2.277-0.031-6.399	c0.014-0.108,0.063-0.22,0.131-0.301C22.184,4.765,32.201,3.5,37.534,3.5 M37.534,3c-5.64,0-15.662,1.36-22.896,9.916	c-0.132,0.156-0.219,0.358-0.245,0.56c-0.551,4.291,0.042,6.587,0.042,6.587s-1.618-0.786-2.687-3.061	c-0.091-0.194-0.276-0.294-0.46-0.294c-0.163,0-0.326,0.079-0.42,0.244C9.45,19.422,5.891,27.224,9.683,38.22	c0.136,0.394,0.514,0.673,0.931,0.688c0.477,0.017,0.945,0.025,1.407,0.025c17.863,0,24.219-12.277,25.5-15.262	c0.134-0.313-0.077-0.657-0.416-0.688c-0.836-0.076-2.399-0.298-4.401-0.947c3.171-0.771,5.104-1.541,5.798-1.841	c0.197-0.085,0.359-0.229,0.469-0.414c0.748-1.258,3.585-6.685,2.935-15.678c-0.034-0.474-0.402-0.863-0.874-0.916	C40.29,3.102,39.076,3,37.534,3L37.534,3z"/></svg>